<?xml version="1.0" standalone="no"?>
<!DOCTYPE svg PUBLIC "-//W3C//DTD SVG 20010904//EN"
 "http://www.w3.org/TR/2001/REC-SVG-20010904/DTD/svg10.dtd">
<svg version="1.0" xmlns="http://www.w3.org/2000/svg"
 width="512.000000pt" height="512.000000pt" viewBox="0 0 512.000000 512.000000"
 preserveAspectRatio="xMidYMid meet">

<g transform="translate(0.000000,512.000000) scale(0.100000,-0.100000)"
fill="currentColor" stroke="none">
<path d="M2245 4543 c-640 -42 -1197 -373 -1482 -879 -174 -310 -263 -676
-264 -1085 0 -264 26 -438 100 -659 196 -586 687 -1009 1375 -1185 286 -73
518 -99 876 -98 465 1 941 67 1480 206 l165 42 7 155 c11 255 10 944 -2 1110
-59 843 -250 1390 -629 1802 -377 410 -992 633 -1626 591z m500 -593 c511
-110 852 -417 1029 -929 125 -359 176 -758 176 -1383 0 -283 -1 -307 -17 -312
-81 -24 -417 -79 -653 -108 -143 -18 -724 -17 -845 0 -462 67 -793 209 -1025
441 -283 283 -397 679 -335 1158 47 355 166 615 375 817 169 163 364 263 616
315 144 30 140 29 369 26 169 -3 230 -7 310 -25z"/>
<path d="M1744 2755 c-41 -18 -93 -71 -110 -112 -8 -18 -14 -57 -14 -88 0 -67
17 -110 60 -153 42 -43 91 -62 154 -62 120 1 216 96 216 215 0 83 -51 163
-125 196 -47 22 -136 24 -181 4z"/>
<path d="M2370 2746 c-26 -13 -58 -41 -75 -65 -28 -39 -30 -50 -30 -126 0 -76
2 -87 30 -126 80 -113 255 -120 343 -13 120 145 20 354 -168 353 -38 0 -69 -7
-100 -23z"/>
<path d="M3012 2748 c-84 -40 -131 -143 -111 -238 47 -221 362 -228 420 -10
47 179 -140 330 -309 248z"/>
</g>
</svg>
